<svg width="63" height="63" viewBox="0 0 63 63" fill="none" xmlns="http://www.w3.org/2000/svg">
  <circle cx="31.5" cy="31.5" r="31.5" fill="#2EC0E5"/>
  <path d="M31.5 18C25.7 18 21 22.7 21 28.5C21 34.3 25.7 39 31.5 39C37.3 39 42 34.3 42 28.5C42 22.7 37.3 18 31.5 18ZM31.5 36C27.36 36 24 32.64 24 28.5C24 24.36 27.36 21 31.5 21C35.64 21 39 24.36 39 28.5C39 32.64 35.64 36 31.5 36Z" fill="white"/>
  <path d="M31.5 25.5C29.85 25.5 28.5 26.85 28.5 28.5C28.5 30.15 29.85 31.5 31.5 31.5C33.15 31.5 34.5 30.15 34.5 28.5C34.5 26.85 33.15 25.5 31.5 25.5Z" fill="white"/>
  <path d="M40.5 40.5C39.3 40.5 38.25 41.25 37.8 42.3L33.9 38.4C36.45 36.6 38.25 33.75 38.7 30.45H43.5C44.33 30.45 45 29.78 45 28.95C45 28.12 44.33 27.45 43.5 27.45H38.7C38.25 24.15 36.45 21.3 33.9 19.5L37.8 15.6C38.25 16.65 39.3 17.4 40.5 17.4C42.15 17.4 43.5 16.05 43.5 14.4C43.5 12.75 42.15 11.4 40.5 11.4C38.85 11.4 37.5 12.75 37.5 14.4C37.5 15.15 37.8 15.9 38.25 16.35L34.35 20.25C32.55 18.9 30.3 18 27.9 18H27.45C26.62 18 25.95 18.67 25.95 19.5C25.95 20.33 26.62 21 27.45 21H27.9C29.85 21 31.65 21.75 33 22.95L28.5 27.45H22.5C21.67 27.45 21 28.12 21 28.95C21 29.78 21.67 30.45 22.5 30.45H28.5L33 34.95C31.65 36.15 29.85 36.9 27.9 36.9H27.45C26.62 36.9 25.95 37.57 25.95 38.4C25.95 39.23 26.62 39.9 27.45 39.9H27.9C30.3 39.9 32.55 39 34.35 37.65L38.25 41.55C37.8 42 37.5 42.75 37.5 43.5C37.5 45.15 38.85 46.5 40.5 46.5C42.15 46.5 43.5 45.15 43.5 43.5C43.5 41.85 42.15 40.5 40.5 40.5Z" fill="white"/>
</svg> 